# xmcd
#
# Track frame offsets: 
#        150
#        13792
#        31065
#        50002
#        67187
#        80274
#        96132
#        115033
#        128177
#        146222
#        163904
#        181876
#        196241
#
# Disc length: 2766 seconds
#
# Revision: 0
# Processed by: cddbd v1.5.2PL0 Copyright (c) Steve Scherf et al.
# Submitted via: ExactAudioCopyFreeDBPlugin 1.0
#
DISCID=b30acc0d
DTITLE=Weepers - Jumpology Performances For Lovers
DYEAR=2007
DGENRE=Blues
TTITLE0=Dust My Broom
TTITLE1=I Can't Stop It
TTITLE2=Days Of Old
TTITLE3=Tore Down
TTITLE4=Lawdy Miss Clawdy
TTITLE5=Bye Bye Johnny
TTITLE6=My Babe
TTITLE7=Dimples
TTITLE8=Mystery Train
TTITLE9=Close To Me
TTITLE10=Catfish Blues
TTITLE11=Matchbox
TTITLE12=Roll and Tumble
EXTD=
EXTT0=
EXTT1=
EXTT2=
EXTT3=
EXTT4=
EXTT5=
EXTT6=
EXTT7=
EXTT8=
EXTT9=
EXTT10=
EXTT11=
EXTT12=
PLAYORDER=
